<svg width="60" height="60" viewBox="0 0 60 60" fill="none" xmlns="http://www.w3.org/2000/svg">
<g clip-path="url(#clip0_81_627)">
<path d="M30 4.60112V3.62357C30 2.03639 28.919 0.749268 27.586 0.749268H2.414C1.081 0.749268 0 2.03639 0 3.62357V55.4551H60V7.47543C60 5.88825 58.919 4.60112 57.586 4.60112H30Z" fill="#FCD462"/>
<path d="M57.8981 8.74341H2.66406V55.9813H57.8981V8.74341Z" fill="white"/>
<path d="M29.144 14.6494L28.253 17.5892H2.414C1.081 17.5892 0 18.8763 0 20.4635V57.0603C0 58.6474 1.081 59.9346 2.414 59.9346H57.586C58.919 59.9346 60 58.6474 60 57.0603V15.6245C60 14.0374 58.919 12.7502 57.586 12.7502H31.415C30.398 12.7502 29.489 13.5099 29.144 14.6494Z" fill="#FCD462"/>
<path d="M59.9999 57.0612V33.2012C43.3339 52.5021 14.4269 57.6673 0.670898 59.0461C1.1099 59.5926 1.7279 59.9355 2.4139 59.9355H57.5859C58.9189 59.9355 59.9999 58.6484 59.9999 57.0612Z" fill="#F4C94B"/>
<path d="M24.3652 19.9038H3.96316C2.88616 19.9038 2.01416 20.9433 2.01416 22.2244V27.3658C5.44616 24.5665 13.1902 21.0397 24.3662 19.9038H24.3652Z" fill="#F6D738"/>
</g>
<defs>
<clipPath id="clip0_81_627">
<rect width="60" height="59.1864" fill="white" transform="translate(0 0.749268)"/>
</clipPath>
</defs>
</svg>
