<?xml version="1.0" encoding="UTF-8"?><svg xmlns="http://www.w3.org/2000/svg" xmlns:xlink="http://www.w3.org/1999/xlink" viewBox="0 0 966.51 1182.9"><defs><style>.cls-1{fill:url(#linear-gradient-12);}.cls-1,.cls-2,.cls-3,.cls-4,.cls-5,.cls-6,.cls-7,.cls-8,.cls-9,.cls-10,.cls-11{mix-blend-mode:screen;}.cls-2{fill:url(#linear-gradient-4);}.cls-3{fill:url(#linear-gradient-14);}.cls-3,.cls-11{opacity:.74;}.cls-12,.cls-13,.cls-14,.cls-15,.cls-16,.cls-17,.cls-18,.cls-19,.cls-20,.cls-21,.cls-22,.cls-23,.cls-24,.cls-25,.cls-26,.cls-27,.cls-28,.cls-29{fill:none;}.cls-12,.cls-13,.cls-14,.cls-16,.cls-17,.cls-18,.cls-22,.cls-24,.cls-25,.cls-27,.cls-28,.cls-29{stroke:#fff;stroke-miterlimit:10;}.cls-4{fill:url(#linear-gradient-2);}.cls-13{stroke-width:.39px;}.cls-14{stroke-width:.93px;}.cls-15,.cls-19,.cls-30{mix-blend-mode:overlay;}.cls-5{fill:url(#linear-gradient-10);}.cls-31{fill:url(#linear-gradient-11);}.cls-16{stroke-width:.32px;}.cls-6{fill:url(#linear-gradient-16);opacity:.16;}.cls-17{stroke-width:.66px;}.cls-32{fill:url(#radial-gradient);}.cls-18{stroke-width:.52px;}.cls-33{fill:url(#linear-gradient-6);opacity:.79;}.cls-19{opacity:.73;}.cls-7{fill:url(#linear-gradient-7);}.cls-7,.cls-9,.cls-10{opacity:.54;}.cls-20{isolation:isolate;}.cls-8{fill:url(#linear-gradient-15);opacity:.34;}.cls-9{fill:url(#linear-gradient-9);}.cls-34{fill:url(#linear-gradient-5);}.cls-10{fill:url(#linear-gradient-8);}.cls-11{fill:url(#linear-gradient);}.cls-22{stroke-width:.86px;}.cls-23{clip-path:url(#clippath);}.cls-24{stroke-width:.59px;}.cls-35{fill:url(#linear-gradient-3);}.cls-30{fill:#fff;opacity:.15;}.cls-25{stroke-width:.25px;}.cls-26{clip-path:url(#clippath-1);}.cls-27{stroke-width:.8px;}.cls-28{stroke-width:.45px;}.cls-29{stroke-width:.73px;}.cls-36{fill:url(#linear-gradient-13);}</style><clipPath id="clippath"><rect class="cls-21" width="966.51" height="1182.9"/></clipPath><radialGradient id="radial-gradient" cx="-323.77" cy="-271.83" fx="-323.77" fy="-271.83" r="1980.54" gradientUnits="userSpaceOnUse"><stop offset="0" stop-color="#001c96"/><stop offset="1" stop-color="#000052"/></radialGradient><clipPath id="clippath-1"><rect class="cls-21" x="-430.6" y="-10.43" width="1843.52" height="1229.01"/></clipPath><linearGradient id="linear-gradient" x1="1098.72" y1="-90.45" x2="377.82" y2="630.46" gradientTransform="translate(1.18 185.16) rotate(7.89)" gradientUnits="userSpaceOnUse"><stop offset="0" stop-color="#7900cf"/><stop offset="1" stop-color="#1500ff"/></linearGradient><linearGradient id="linear-gradient-2" x1="66.69" y1="-235.99" x2="702.72" y2="400.04" gradientTransform="translate(-92.73 598.26) rotate(-29.25)" gradientUnits="userSpaceOnUse"><stop offset="0" stop-color="#7900cf"/><stop offset="1" stop-color="red"/></linearGradient><linearGradient id="linear-gradient-3" x1="827.27" y1="1466.84" x2="1753.39" y2="540.73" gradientUnits="userSpaceOnUse"><stop offset="0" stop-color="#000052"/><stop offset="1" stop-color="#0059ff"/></linearGradient><linearGradient id="linear-gradient-4" x1="778.83" y1="1035.04" x2="1414.91" y2="1671.12" gradientTransform="translate(177.98 -159.21) rotate(-.64)" xlink:href="#linear-gradient-2"/><linearGradient id="linear-gradient-5" x1="-1026.05" y1="366.48" x2="897.89" y2="366.48" gradientUnits="userSpaceOnUse"><stop offset="0" stop-color="#0059ff"/><stop offset="1" stop-color="#000052"/></linearGradient><linearGradient id="linear-gradient-6" x1="1907.94" y1="-64.19" x2="2544.01" y2="571.88" gradientTransform="translate(2398.05 1402.52) rotate(-145.63)" gradientUnits="userSpaceOnUse"><stop offset="0" stop-color="#00cfcc"/><stop offset="1" stop-color="#002fff"/></linearGradient><linearGradient id="linear-gradient-7" x1="286.58" y1="610.84" x2="-358.41" y2="1255.83" gradientUnits="userSpaceOnUse"><stop offset="0" stop-color="#7900cf"/><stop offset="1" stop-color="#000"/></linearGradient><linearGradient id="linear-gradient-8" x1="1856.82" y1="-329.96" x2="1211.83" y2="315.03" gradientTransform="translate(2655.7 815.37) rotate(-178.57)" xlink:href="#linear-gradient-7"/><linearGradient id="linear-gradient-9" x1="-305.4" y1="172.93" x2="358.64" y2="-491.11" xlink:href="#linear-gradient-7"/><linearGradient id="linear-gradient-10" x1="-51.46" y1="-178.67" x2="457.22" y2="330.01" gradientTransform="matrix(1,0,0,1,0,0)" xlink:href="#linear-gradient-2"/><linearGradient id="linear-gradient-11" x1="820.73" y1="810.02" x2="820.73" y2="930.85" gradientTransform="matrix(1,0,0,1,0,0)" xlink:href="#linear-gradient-6"/><linearGradient id="linear-gradient-12" x1="-324.35" y1="-25.18" x2="93.69" y2="392.87" gradientTransform="matrix(1,0,0,1,0,0)" xlink:href="#linear-gradient-2"/><linearGradient id="linear-gradient-13" x1="192.17" y1="967.93" x2="828.23" y2="1603.99" gradientTransform="matrix(1,0,0,1,0,0)" xlink:href="#linear-gradient-6"/><linearGradient id="linear-gradient-14" x1="488.77" y1="703.06" x2="-232.14" y2="1423.96" xlink:href="#linear-gradient"/><linearGradient id="linear-gradient-15" x1="819.31" y1="970.25" x2="384.88" y2="1404.68" gradientUnits="userSpaceOnUse"><stop offset="0" stop-color="#fff"/><stop offset="1" stop-color="#000"/></linearGradient><linearGradient id="linear-gradient-16" x1="1607.49" y1="200.49" x2="1173.09" y2="634.89" gradientTransform="translate(2608.5 335.05) rotate(166.25)" xlink:href="#linear-gradient-15"/></defs><g class="cls-20"><g id="Layer_2"><g id="Layer_1-2"><g class="cls-23"><rect class="cls-32" x="-430.6" y="-10.43" width="1843.52" height="1229.01"/><g class="cls-26"><path class="cls-11" d="m65.26,953.34c51.14,137.2,197.04,220.98,330.36,261.69,187.65,57.31,194.2-63.92,275.8-190.58,91.31-141.74,280.18-147.39,399.58-253.82,106.25-94.71,154.96-253.85,114.38-391.14-48.39-163.74-215.12-215.53-372.45-206.99-163.71,8.89-219.34,164.07-361.57,212.12-134.72,45.52-276.47-24.75-381.02,105.84-84.51,105.55-49.64,343.36-5.09,462.88Z"/><path class="cls-4" d="m650.47,235.18c-35.75-54.52-32.37-163-101.96-193.23-71.58-31.09-101.33,42.98-162.31,59.44-105.87,28.58-117.59-46.88-170.12-115.19C140.09-112.61-45.36-143.51-46.25,26.12c-.81,154.83,100.23,242.66-8.26,389.15-77.69,104.9-193.51,232.45-136.82,377.73,83.74,214.56,275.85,47.58,371.18-48.6,123.98-125.09,291.77-91.2,445.6-161.09,64.13-29.14,150.8-73.69,158.12-154.65,8.44-93.34-89.28-126.64-133.09-193.47Z"/><path class="cls-35" d="m916.22,1642.67c161.91-23.29,170.7-265.75,329.35-329.57,157.16-63.22,351.1-63.53,498.77-151.9,377.86-226.13-206.34-663.73-417.46-474.47-46.22,41.43-57.64,110.05-95.97,156.98-52.55,64.35-101.88,64.32-179.07,71.48-147.94,13.72-307.02,16.9-422.58,123.36-254.96,234.86-62.2,654.34,286.97,604.11Z"/><path class="cls-2" d="m1730.47,1141.06c-5.27-64.99,49.66-158.59,3.04-218.46-47.95-61.58-109.54-10.81-170.95-25.57-106.63-25.62-80.77-97.47-94.17-182.6-19.37-123.14-167.37-239.09-249.4-90.61-74.87,135.53-28.24,261.02-193.64,337.65-118.44,54.88-281.21,111.37-301.02,266.05-29.26,228.46,219.36,173.89,349.11,135.12,168.75-50.42,299.8,59.69,468.32,72.02,70.25,5.14,167.67,7.54,212.88-60.02,52.12-77.9-17.71-153.93-24.17-233.58Z"/><path class="cls-34" d="m-175.71,921.53c137.19-89.09,43.42-312.85,160.64-437.36,116.12-123.33,292.03-205.01,388.97-347.19C621.98-226.84-91.93-378.87-204.13-118.49c-24.56,57-6.14,124.08-21.23,182.77-20.7,80.47-65.48,101.14-132.54,140.03-128.53,74.54-271.58,144.19-331.8,289.31-132.86,320.17,218.15,620.04,514,427.91Z"/><path class="cls-33" d="m319.8-283.19c-32.96,56.25-131.65,101.42-127.81,177.2,3.95,77.94,83.52,71.69,125.36,119,72.64,82.15,10.25,126.18-27.61,203.59-54.77,111.98-.05,291.85,152.31,217.28,139.07-68.07,172.86-197.61,352.3-165.5,128.5,22.99,294.23,70.09,399.18-45.25,155.02-170.35-79.93-268.26-208.45-310.93-167.15-55.5-211.33-220.87-342.3-327.63-54.6-44.51-133.02-102.35-208.8-72.95-87.38,33.91-73.79,136.25-114.19,205.19Z"/><path class="cls-7" d="m-545.34,1364.71c62.17,115.32,201.75,171.66,324.91,191.38,173.34,27.76,164.27-80.49,221.04-202.75,63.53-136.83,230.23-165.02,322.99-274,82.54-96.98,106.18-244,53.37-360.7-62.98-139.18-217.11-164.61-355.5-137.73-144.01,27.97-174.26,172.33-294.41,232.38-113.82,56.88-248.07,12-324.7,140.57-61.94,103.92-1.85,310.41,52.3,410.86Z"/><path class="cls-10" d="m1641.66,366.07c-59.28-116.84-197.42-176.63-320.05-199.41-172.6-32.06-166.23,76.37-226.02,197.19-66.92,135.2-234.27,159.24-329.71,265.87-84.93,94.89-112.22,241.28-62.33,359.26,59.5,140.7,212.94,169.97,351.96,146.54,144.66-24.38,178.5-167.94,300.11-224.97,115.2-54.03,248.29-5.82,328.1-132.44,64.51-102.35,9.58-310.27-42.06-412.04Z"/><path class="cls-9" d="m358.93-404.29c-59.28-116.84-197.42-176.63-320.05-199.41-172.6-32.06-166.23,76.37-226.02,197.19-66.92,135.2-234.27,159.24-329.71,265.87-84.93,94.89-112.22,241.28-62.33,359.26,59.5,140.7,212.94,169.97,351.96,146.54C-82.56,340.79-48.72,197.22,72.89,140.19c115.2-54.03,248.29-5.82,328.1-132.44,64.51-102.35,9.58-310.27-42.06-412.04Z"/><g class="cls-15"><path class="cls-12" d="m-61.1,432.69c-7.76-46.38-23.99-92.17-49.29-135.15C-218.25,114.23-455.36,49.03-641.67,151.63c-195.15,107.47-262.64,353.79-151.24,545.28,56.25,96.7,147.21,160.64,247.93,185.25,101.97,24.91,195.89,76.1,267.97,152.41,72.1,76.33,192.22,103.19,295.11,43.34,145.07-84.39,149.82-267.51,54.45-371.04C2.06,630.37-43.93,535.28-61.1,432.69Z"/><path class="cls-14" d="m-61.03,439.02c-9.09-45.93-26.59-91.01-53.02-133.04C-226.79,126.74-464.66,68.85-647.03,176.43c-191.03,112.68-250.94,359.78-134.45,547.06,58.82,94.57,151.22,155.52,252.17,177.04,102.2,21.79,197.17,69.97,271.14,143.77,74,73.83,194.32,97.02,294.94,34.44,141.87-88.24,141.22-270.61,43.26-370.82C7.64,633.87-40.93,540.6-61.03,439.02Z"/><path class="cls-22" d="m-60.96,445.35c-10.41-45.47-29.18-89.85-56.76-130.93-117.6-175.16-356.23-225.76-534.67-113.2-186.91,117.9-239.24,365.78-117.66,548.84,61.4,92.44,155.22,150.4,256.4,168.84,102.44,18.66,198.45,63.83,274.32,135.14,75.89,71.34,196.41,90.86,294.77,25.54,138.68-92.1,132.61-273.71,32.07-370.61C13.21,637.37-37.93,545.93-60.96,445.35Z"/><path class="cls-27" d="m-60.89,451.68c-11.74-45.02-31.78-88.7-60.5-128.82-122.47-171.09-361.85-214.39-536.36-96.84-182.79,123.12-227.54,371.78-100.87,550.62,63.97,90.31,159.23,145.28,260.64,160.63,102.67,15.54,199.73,57.69,277.49,126.51,77.79,68.84,198.51,84.7,294.6,16.64,135.49-95.96,124-276.81,20.88-370.39C18.79,640.87-34.92,551.25-60.89,451.68Z"/><path class="cls-29" d="m-60.83,458.01c-13.07-44.56-34.37-87.54-64.23-126.7-127.34-167.02-367.48-203.02-538.06-80.49-178.67,128.34-215.84,377.78-84.08,552.4,66.54,88.19,163.24,140.16,264.88,152.43,102.9,12.42,201.01,51.55,280.66,117.87,79.68,66.34,200.61,78.53,294.43,7.74,132.29-99.82,115.39-279.91,9.69-370.18C24.37,644.37-31.92,556.57-60.83,458.01Z"/><path class="cls-17" d="m-60.76,464.34c-14.4-44.11-36.97-86.38-67.97-124.59-132.2-162.95-373.1-191.64-539.75-64.14-174.55,133.56-204.14,383.78-67.29,554.19,69.11,86.06,167.25,135.04,269.12,144.22,103.14,9.29,202.29,45.41,283.84,109.24,81.57,63.85,202.7,72.37,294.26-1.16,129.1-103.67,106.78-283.01-1.5-369.96C29.95,647.88-28.92,561.89-60.76,464.34Z"/><path class="cls-24" d="m-60.69,470.67c-15.72-43.65-39.57-85.22-71.71-122.48-137.07-158.87-378.73-180.27-541.44-47.79-170.43,138.77-192.44,389.78-50.5,555.97,71.68,83.93,171.25,129.92,273.36,136.02,103.37,6.17,203.57,39.27,287.01,100.6,83.47,61.35,204.8,66.21,294.09-10.06,125.9-107.53,98.18-286.11-12.68-369.75-81.92-61.81-143.35-145.97-178.13-242.52Z"/><path class="cls-18" d="m-60.62,477c-17.05-43.2-42.16-84.07-75.44-120.37-141.94-154.8-384.35-168.9-543.14-31.43-166.32,143.99-180.74,395.77-33.71,557.75,74.25,81.8,175.26,124.8,277.6,127.81,103.61,3.05,204.85,33.13,290.19,91.97,85.36,58.86,206.89,60.04,293.92-18.95,122.71-111.39,89.57-289.21-23.87-369.53-83.83-59.36-147.83-141.7-185.55-237.24Z"/><path class="cls-28" d="m-60.55,483.32c-18.38-42.74-44.76-82.91-79.18-118.25-146.81-150.73-389.98-157.53-544.83-15.08-162.2,149.21-169.04,401.77-16.92,559.53,76.82,79.67,179.27,119.68,281.84,119.61,103.84-.08,206.13,26.99,293.36,83.34,87.25,56.36,208.99,53.88,293.75-27.85,119.51-115.24,80.96-292.31-35.06-369.32-85.73-56.91-152.31-137.44-192.96-231.97Z"/><path class="cls-13" d="m-60.49,489.65c-19.71-42.28-47.35-81.75-82.92-116.14-151.67-146.65-395.6-146.16-546.52,1.27-158.08,154.43-157.34,407.77-.12,561.31,79.39,77.54,183.28,114.56,286.07,111.4,104.07-3.2,207.41,20.86,296.53,74.7,89.15,53.86,211.09,47.72,293.58-36.75,116.32-119.1,72.35-295.41-46.25-369.11-87.64-54.46-156.8-133.17-200.38-226.69Z"/><path class="cls-16" d="m-60.42,495.98c-21.03-41.83-49.95-80.59-86.66-114.03-156.54-142.58-401.23-134.79-548.21,17.63-153.96,159.65-145.64,413.77,16.67,563.09,81.96,75.41,187.28,109.44,290.31,103.2,104.31-6.32,208.7,14.72,299.71,66.07,91.04,51.37,213.18,41.55,293.41-45.65,113.12-122.96,63.75-298.51-57.44-368.89-89.55-52.01-161.28-128.9-207.8-221.41Z"/><path class="cls-25" d="m-60.35,502.31c-22.36-41.37-52.54-79.44-90.39-111.92-161.41-138.51-406.85-123.42-549.91,33.98-149.84,164.86-133.94,419.77,33.46,564.87,84.53,73.28,191.29,104.32,294.55,94.99,104.54-9.45,209.98,8.58,302.88,57.43,92.94,48.87,215.28,35.39,293.24-54.55,109.93-126.81,55.14-301.61-68.62-368.68-91.45-49.56-165.76-124.63-215.21-216.14Z"/></g><g class="cls-19"><path class="cls-12" d="m476.37-193.34c-50.51-.21-101.92,8.66-152.02,27.63C110.72-84.82-1.34,154.34,73.43,370.19c78.32,226.09,326.81,342.25,549.74,259.11,112.58-41.99,196.78-126.66,241.11-228.81,44.88-103.42,116.13-193.54,209.99-255.99,93.89-62.47,144.13-184.74,99.46-304.52-62.99-168.89-255.97-207.17-382.88-125-93.78,60.71-202.78,92.14-314.5,91.68Z"/><path class="cls-14" d="m473.98-208.71c-50.27,1.28-101.17,11.62-150.46,31.97C113.32-89.95,8.85,151.33,89.61,363.92c84.6,222.68,335.29,330.96,554.68,241.66,110.79-45.1,192.09-131.83,233.2-234.78,41.62-104.23,109.86-196.01,201.43-260.91,91.59-64.93,137.99-188.08,90.01-305.96-67.65-166.2-260.81-198.62-384.68-113.12-91.53,63.18-199.08,97.65-310.26,100.48Z"/><path class="cls-22" d="m471.6-224.08c-50.03,2.77-100.41,14.58-148.9,36.31C115.92-95.09,19.04,148.33,105.79,357.66c90.87,219.26,343.76,319.66,559.61,224.21,109.01-48.2,187.39-137,225.28-240.76,38.36-105.05,103.6-198.48,192.86-265.84,89.29-67.38,131.85-191.42,80.56-307.39-72.31-163.52-265.66-190.07-386.48-101.24-89.29,65.64-195.37,103.17-306.02,109.29Z"/><path class="cls-27" d="m469.22-239.44c-49.79,4.26-99.66,17.53-147.34,40.65C118.53-100.22,29.23,145.32,121.97,351.39c97.14,215.85,352.23,308.37,564.55,206.76,107.22-51.31,182.7-142.18,217.36-246.74,35.09-105.86,97.33-200.95,184.3-270.77,87-69.84,125.7-194.76,71.11-308.83-76.98-160.84-270.5-181.52-388.29-89.36-87.04,68.1-191.67,108.69-301.78,118.1Z"/><path class="cls-29" d="m466.83-254.81c-49.54,5.74-98.91,20.49-145.79,44.99C121.13-105.35,39.42,142.31,138.14,345.13c103.41,212.44,360.71,297.07,569.48,189.31,105.43-54.42,178.01-147.35,209.45-252.71,31.83-106.68,91.07-203.42,175.74-275.7,84.7-72.3,119.56-198.09,61.66-310.27-81.64-158.16-275.34-172.97-390.09-77.48-84.79,70.57-187.96,114.21-297.54,126.91Z"/><path class="cls-17" d="m464.45-270.17c-49.3,7.23-98.15,23.45-144.23,49.33C123.73-110.49,49.61,139.31,154.32,338.86c109.68,209.03,369.18,285.77,574.42,171.86,103.64-57.53,173.32-152.52,201.53-258.69,28.56-107.49,84.8-205.89,167.17-280.62,82.4-74.76,113.41-201.43,52.21-311.7-86.3-155.48-280.19-164.43-391.9-65.59-82.55,73.03-184.26,119.73-293.3,135.72Z"/><path class="cls-24" d="m462.07-285.54c-49.06,8.72-97.4,26.41-142.67,53.67C126.33-115.62,59.8,136.3,170.5,332.6c115.95,205.61,377.66,274.48,579.35,154.41,101.86-60.64,168.63-157.69,193.62-264.67,25.3-108.31,78.54-208.36,158.61-285.55,80.1-77.21,107.27-204.77,42.76-313.14-90.96-152.8-285.03-155.88-393.7-53.71-80.3,75.49-180.55,125.24-289.06,144.53Z"/><path class="cls-18" d="m459.68-300.9c-48.82,10.21-96.64,29.36-141.11,58.01C128.93-120.76,69.99,133.29,186.67,326.33c122.22,202.2,386.13,263.18,584.29,136.95,100.07-63.75,163.94-162.86,185.7-270.64,22.04-109.12,72.27-210.83,150.05-290.48,77.8-79.67,101.13-208.11,33.31-314.57-95.63-150.12-289.88-147.33-395.51-41.83-78.05,77.96-176.84,130.76-284.83,153.33Z"/><path class="cls-28" d="m457.3-316.27c-48.58,11.69-95.89,32.32-139.56,62.35C131.53-125.89,80.18,130.29,202.85,320.07c128.5,198.79,394.6,251.89,589.22,119.5,98.28-66.85,159.24-168.03,177.79-276.62,18.77-109.93,66-213.3,141.48-295.41,75.5-82.13,94.98-211.44,23.86-316.01-100.29-147.44-294.72-138.78-397.31-29.95-75.81,80.42-173.14,136.28-280.59,162.14Z"/><path class="cls-13" d="m454.92-331.63c-48.34,13.18-95.14,35.28-138,66.69C134.14-131.02,90.37,127.28,219.03,313.81c134.77,195.37,403.08,240.59,594.16,102.05,96.49-69.96,154.55-173.21,169.87-282.6,15.51-110.75,59.74-215.77,132.92-300.33,73.2-84.59,88.84-214.78,14.4-317.45-104.95-144.76-299.57-130.23-399.12-18.07-73.56,82.88-169.43,141.8-276.35,170.95Z"/><path class="cls-16" d="m452.53-347c-48.1,14.67-94.38,38.24-136.44,71.02C136.74-136.16,100.56,124.27,235.21,307.54c141.04,191.96,411.55,229.3,599.09,84.6,94.71-73.07,149.86-178.38,161.95-288.57,12.24-111.56,53.47-218.24,124.36-305.26,70.91-87.05,82.7-218.12,4.95-318.88-109.62-142.07-304.41-121.68-400.92-6.18-71.31,85.35-165.73,147.31-272.11,179.76Z"/><path class="cls-25" d="m450.15-362.36c-47.86,16.16-93.63,41.2-134.88,75.36C139.34-141.29,110.75,121.27,251.38,301.28c147.31,188.55,420.03,218,604.03,67.15,92.92-76.18,145.17-183.55,154.04-294.55,8.98-112.38,47.21-220.71,115.79-310.19,68.61-89.5,76.55-221.46-4.5-320.32-114.28-139.39-309.26-113.13-402.73,5.7-69.07,87.81-162.02,152.83-267.87,188.57Z"/></g><g class="cls-19"><path class="cls-12" d="m853.27,996.65c-47.03-.19-94.9,8.06-141.54,25.73-198.91,75.32-303.25,298-233.62,498.97,72.93,210.51,304.29,318.67,511.86,241.25,104.82-39.09,183.22-117.93,224.5-213.04,41.79-96.29,108.13-180.2,195.52-238.35,87.42-58.16,134.2-172.01,92.61-283.53-58.65-157.25-238.33-192.89-356.49-116.39-87.32,56.53-188.81,85.79-292.82,85.36Z"/><path class="cls-14" d="m851.06,982.34c-46.8,1.19-94.2,10.82-140.09,29.77-195.72,80.81-292.99,305.47-217.79,503.4,78.77,207.33,312.18,308.15,516.45,225.01,103.16-41.99,178.85-122.75,217.13-218.6,38.75-97.05,102.29-182.5,187.55-242.93,85.28-60.45,128.48-175.12,83.81-284.87-62.99-154.75-242.84-184.93-358.17-105.33-85.22,58.82-185.36,90.92-288.88,93.56Z"/><path class="cls-22" d="m848.84,968.03c-46.58,2.58-93.49,13.57-138.64,33.81-192.52,86.29-282.73,312.93-201.96,507.84,84.61,204.15,320.07,297.63,521.05,208.76,101.49-44.88,174.48-127.56,209.76-224.17,35.71-97.81,96.46-184.8,179.57-247.52,83.14-62.74,122.76-178.23,75.01-286.21-67.33-152.25-247.35-176.97-359.85-94.26-83.13,61.12-181.91,96.06-284.93,101.76Z"/><path class="cls-27" d="m846.62,953.73c-46.35,3.96-92.79,16.33-137.19,37.85-189.33,91.78-272.48,320.4-186.13,512.27,90.44,200.98,327.96,287.12,525.64,192.51,99.83-47.78,170.11-132.38,202.38-229.73,32.67-98.57,90.62-187.1,171.6-252.11,81-65.03,117.04-181.33,66.21-287.55-71.67-149.76-251.86-169.01-361.53-83.2-81.04,63.41-178.46,101.2-280.98,109.96Z"/><path class="cls-29" d="m844.4,939.42c-46.13,5.35-92.09,19.08-135.74,41.89-186.14,97.27-262.22,327.87-170.3,516.7,96.28,197.8,335.85,276.6,530.24,176.26,98.17-50.67,165.74-137.19,195.01-235.3,29.63-99.32,84.79-189.4,163.63-256.7,78.86-67.32,111.32-184.44,57.41-288.88-76.01-147.26-256.37-161.05-363.21-72.14-78.95,65.7-175.01,106.34-277.04,118.16Z"/><path class="cls-17" d="m842.18,925.11c-45.91,6.73-91.39,21.83-134.29,45.93-182.95,102.75-251.96,335.33-154.47,521.14,102.12,194.62,343.74,266.08,534.83,160.01,96.5-53.56,161.37-142.01,187.64-240.86,26.6-100.08,78.96-191.7,155.65-261.28,76.72-69.6,105.6-187.55,48.61-290.22-80.35-144.77-260.88-153.09-364.89-61.07-76.86,68-171.56,111.47-273.09,126.37Z"/><path class="cls-24" d="m839.96,910.81c-45.68,8.12-90.69,24.59-132.84,49.97-179.76,108.24-241.71,342.8-138.64,525.57,107.96,191.44,351.63,255.56,539.43,143.76,94.84-56.46,157.01-146.82,180.27-246.43,23.56-100.84,73.12-194,147.68-265.87,74.58-71.89,99.88-190.66,39.81-291.56-84.7-142.27-265.39-145.13-366.57-50.01-74.77,70.29-168.11,116.61-269.14,134.57Z"/><path class="cls-18" d="m837.74,896.5c-45.46,9.5-89.98,27.34-131.39,54.01-176.57,113.72-231.45,350.27-122.8,530,113.8,188.27,359.52,245.05,544.02,127.52,93.17-59.35,152.64-151.64,172.9-251.99,20.52-101.6,67.29-196.3,139.71-270.46,72.44-74.18,94.16-193.77,31.01-292.9-89.04-139.77-269.9-137.17-368.25-38.95-72.67,72.58-164.66,121.75-265.2,142.77Z"/><path class="cls-28" d="m835.52,882.19c-45.23,10.89-89.28,30.1-129.94,58.05-173.38,119.21-221.19,357.73-106.97,534.44,119.64,185.09,367.41,234.53,548.62,111.27,91.51-62.25,148.27-156.45,165.53-257.56,17.48-102.36,61.46-198.6,131.73-275.05,70.3-76.47,88.44-196.87,22.21-294.23-93.38-137.28-274.41-129.21-369.93-27.88-70.58,74.88-161.21,126.89-261.25,150.97Z"/><path class="cls-13" d="m833.3,867.89c-45.01,12.27-88.58,32.85-128.49,62.09-170.19,124.7-210.94,365.2-91.14,538.87,125.48,181.91,375.3,224.01,553.21,95.02,89.84-65.14,143.9-161.27,158.16-263.12,14.44-103.12,55.62-200.9,123.76-279.64,68.16-78.76,82.72-199.98,13.41-295.57-97.72-134.78-278.92-121.25-371.61-16.82-68.49,77.17-157.76,132.02-257.3,159.17Z"/><path class="cls-16" d="m831.08,853.58c-44.78,13.66-87.88,35.6-127.04,66.13-166.99,130.18-200.68,372.67-75.31,543.3,131.32,178.73,383.19,213.49,557.81,78.77,88.18-68.03,139.53-166.09,150.79-268.69,11.4-103.88,49.79-203.2,115.79-284.22,66.02-81.05,77-203.09,4.61-296.91-102.06-132.28-283.43-113.29-373.29-5.76-66.4,79.46-154.31,137.16-253.36,167.37Z"/><path class="cls-25" d="m828.86,839.27c-44.56,15.04-87.18,38.36-125.59,70.17-163.8,135.67-190.42,380.13-59.48,547.74,137.16,175.56,391.08,202.98,562.4,62.52,86.52-70.93,135.16-170.9,143.42-274.25,8.36-104.63,43.95-205.5,107.81-288.81,63.88-83.34,71.28-206.2-4.19-298.25-106.4-129.79-287.94-105.33-374.97,5.31-64.31,81.76-150.86,142.3-249.41,175.57Z"/></g><circle class="cls-5" cx="124.11" cy="-3.1" r="84.2"/><circle class="cls-31" cx="820.73" cy="837.87" r="52.02"/><circle class="cls-1" cx="5.87" cy="305.05" r="52.02"/><path class="cls-36" d="m951.32,1250.35c-4.55-65.04,51.42-158.03,5.47-218.41-47.26-62.1-109.41-12.02-170.66-27.46-106.34-26.8-79.69-98.36-92.14-183.63-18.01-123.35-164.71-240.93-248.38-93.37-76.37,134.69-31.13,260.69-197.38,335.49-119.04,53.56-282.43,108.24-303.95,262.69-31.79,228.12,217.42,176.31,347.59,138.98,169.3-48.55,299.12,63.01,467.49,77.21,70.19,5.92,167.58,9.4,213.53-57.66,52.98-77.31-16-154.11-21.58-233.83Z"/><path class="cls-3" d="m-647.77,1655.62c51.14,137.2,197.04,220.98,330.36,261.69,187.65,57.3,194.2-63.92,275.8-190.58,91.31-141.74,280.18-147.39,399.58-253.82,106.25-94.71,154.96-253.85,114.38-391.14-48.39-163.74-215.12-215.53-372.45-206.99-163.71,8.89-219.34,164.07-361.57,212.12-134.72,45.52-276.47-24.75-381.02,105.84-84.51,105.55-49.64,343.36-5.09,462.88Z"/><path class="cls-8" d="m260.49,1480.48c38.69,71.77,157.27,139.97,241.29,130.74,100.16-11.01,83.88-63.92,127.88-138.43,84.18-142.53,393-220.08,243.58-447.06-47.9-72.76-146.05-99.2-229.48-75.26-90.12,25.86-120.71,114.66-199.08,157.13-72.87,39.49-170.54,12.8-219.56,95.05-46.59,78.16-3.12,206.44,35.37,277.83Z"/><path class="cls-6" d="m1420.87-106.03c-54.64-60.52-186.03-98.59-265.45-69.65-94.68,34.49-66.28,82.02-91.32,164.86-47.89,158.45-329.44,307.17-130.36,492.14,63.82,59.3,165.45,61.65,240.8,18.57,81.39-46.54,90.01-140.06,156.04-199.94,61.4-55.68,162.61-52.96,190.68-144.51,26.68-87-46.03-201.26-100.38-261.46Z"/></g><path class="cls-30" d="m997.99,1411.58h5.03V-233.19h-5.03v94.47h-106.56v-94.47h-5.03v94.47h-106.56v-94.47h-5.03v94.47h-106.56v-94.47h-5.03v94.47h-106.56v-94.47h-5.03v94.47h-106.56v-94.47h-5.03v94.47h-106.56v-94.47h-5.03v94.47h-106.56v-94.47h-5.03v94.47h-106.56v-94.47h-5.03v94.47H-1.3v-94.47h-5.03v94.47h-106.56v-94.47h-5.03v1644.77h5.03v-94.57H-6.33v94.57H-1.3v-94.57h106.56v94.57h5.03v-94.57h106.56v94.57h5.03v-94.57h106.56v94.57h5.03v-94.57h106.56v94.57h5.03v-94.57h106.56v94.57h5.03v-94.57h106.56v94.57h5.03v-94.57h106.56v94.57h5.03v-94.57h106.56v94.57h5.03v-94.57h106.56v94.57ZM-6.33,1311.98h-106.56v-106.56H-6.33v106.56Zm111.59,0H-1.3v-106.56h106.56v106.56Zm111.59,0h-106.56v-106.56h106.56v106.56Zm111.59,0h-106.56v-106.56h106.56v106.56Zm111.59,0h-106.56v-106.56h106.56v106.56Zm111.59,0h-106.56v-106.56h106.56v106.56Zm111.59,0h-106.56v-106.56h106.56v106.56Zm111.59,0h-106.56v-106.56h106.56v106.56Zm111.59,0h-106.56v-106.56h106.56v106.56Zm111.59,0h-106.56v-106.56h106.56v106.56ZM-6.33,1200.39h-106.56v-106.56H-6.33v106.56Zm111.59,0H-1.3v-106.56h106.56v106.56Zm111.59,0h-106.56v-106.56h106.56v106.56Zm111.59,0h-106.56v-106.56h106.56v106.56Zm111.59,0h-106.56v-106.56h106.56v106.56Zm111.59,0h-106.56v-106.56h106.56v106.56Zm111.59,0h-106.56v-106.56h106.56v106.56Zm111.59,0h-106.56v-106.56h106.56v106.56Zm111.59,0h-106.56v-106.56h106.56v106.56Zm111.59,0h-106.56v-106.56h106.56v106.56ZM-6.33,1088.8h-106.56v-106.56H-6.33v106.56Zm111.59,0H-1.3v-106.56h106.56v106.56Zm111.59,0h-106.56v-106.56h106.56v106.56Zm111.59,0h-106.56v-106.56h106.56v106.56Zm111.59,0h-106.56v-106.56h106.56v106.56Zm111.59,0h-106.56v-106.56h106.56v106.56Zm111.59,0h-106.56v-106.56h106.56v106.56Zm111.59,0h-106.56v-106.56h106.56v106.56Zm111.59,0h-106.56v-106.56h106.56v106.56Zm111.59,0h-106.56v-106.56h106.56v106.56ZM-6.33,977.2h-106.56v-106.56H-6.33v106.56Zm111.59,0H-1.3v-106.56h106.56v106.56Zm111.59,0h-106.56v-106.56h106.56v106.56Zm111.59,0h-106.56v-106.56h106.56v106.56Zm111.59,0h-106.56v-106.56h106.56v106.56Zm111.59,0h-106.56v-106.56h106.56v106.56Zm111.59,0h-106.56v-106.56h106.56v106.56Zm111.59,0h-106.56v-106.56h106.56v106.56Zm111.59,0h-106.56v-106.56h106.56v106.56Zm111.59,0h-106.56v-106.56h106.56v106.56ZM-6.33,865.61h-106.56v-106.56H-6.33v106.56Zm111.59,0H-1.3v-106.56h106.56v106.56Zm111.59,0h-106.56v-106.56h106.56v106.56Zm111.59,0h-106.56v-106.56h106.56v106.56Zm111.59,0h-106.56v-106.56h106.56v106.56Zm111.59,0h-106.56v-106.56h106.56v106.56Zm111.59,0h-106.56v-106.56h106.56v106.56Zm111.59,0h-106.56v-106.56h106.56v106.56Zm111.59,0h-106.56v-106.56h106.56v106.56Zm111.59,0h-106.56v-106.56h106.56v106.56ZM-6.33,754.02h-106.56v-106.56H-6.33v106.56Zm111.59,0H-1.3v-106.56h106.56v106.56Zm111.59,0h-106.56v-106.56h106.56v106.56Zm111.59,0h-106.56v-106.56h106.56v106.56Zm111.59,0h-106.56v-106.56h106.56v106.56Zm111.59,0h-106.56v-106.56h106.56v106.56Zm111.59,0h-106.56v-106.56h106.56v106.56Zm111.59,0h-106.56v-106.56h106.56v106.56Zm111.59,0h-106.56v-106.56h106.56v106.56Zm111.59,0h-106.56v-106.56h106.56v106.56ZM-6.33,642.43h-106.56v-106.56H-6.33v106.56Zm111.59,0H-1.3v-106.56h106.56v106.56Zm111.59,0h-106.56v-106.56h106.56v106.56Zm111.59,0h-106.56v-106.56h106.56v106.56Zm111.59,0h-106.56v-106.56h106.56v106.56Zm111.59,0h-106.56v-106.56h106.56v106.56Zm111.59,0h-106.56v-106.56h106.56v106.56Zm111.59,0h-106.56v-106.56h106.56v106.56Zm111.59,0h-106.56v-106.56h106.56v106.56Zm111.59,0h-106.56v-106.56h106.56v106.56ZM-6.33,530.84h-106.56v-106.56H-6.33v106.56Zm111.59,0H-1.3v-106.56h106.56v106.56Zm111.59,0h-106.56v-106.56h106.56v106.56Zm111.59,0h-106.56v-106.56h106.56v106.56Zm111.59,0h-106.56v-106.56h106.56v106.56Zm111.59,0h-106.56v-106.56h106.56v106.56Zm111.59,0h-106.56v-106.56h106.56v106.56Zm111.59,0h-106.56v-106.56h106.56v106.56Zm111.59,0h-106.56v-106.56h106.56v106.56Zm111.59,0h-106.56v-106.56h106.56v106.56ZM-6.33,419.24h-106.56v-106.56H-6.33v106.56Zm111.59,0H-1.3v-106.56h106.56v106.56Zm111.59,0h-106.56v-106.56h106.56v106.56Zm111.59,0h-106.56v-106.56h106.56v106.56Zm111.59,0h-106.56v-106.56h106.56v106.56Zm111.59,0h-106.56v-106.56h106.56v106.56Zm111.59,0h-106.56v-106.56h106.56v106.56Zm111.59,0h-106.56v-106.56h106.56v106.56Zm111.59,0h-106.56v-106.56h106.56v106.56Zm111.59,0h-106.56v-106.56h106.56v106.56ZM-6.33,307.65h-106.56v-106.56H-6.33v106.56Zm111.59,0H-1.3v-106.56h106.56v106.56Zm111.59,0h-106.56v-106.56h106.56v106.56Zm111.59,0h-106.56v-106.56h106.56v106.56Zm111.59,0h-106.56v-106.56h106.56v106.56Zm111.59,0h-106.56v-106.56h106.56v106.56Zm111.59,0h-106.56v-106.56h106.56v106.56Zm111.59,0h-106.56v-106.56h106.56v106.56Zm111.59,0h-106.56v-106.56h106.56v106.56Zm111.59,0h-106.56v-106.56h106.56v106.56ZM-6.33,196.06h-106.56v-106.56H-6.33v106.56Zm111.59,0H-1.3v-106.56h106.56v106.56Zm111.59,0h-106.56v-106.56h106.56v106.56Zm111.59,0h-106.56v-106.56h106.56v106.56Zm111.59,0h-106.56v-106.56h106.56v106.56Zm111.59,0h-106.56v-106.56h106.56v106.56Zm111.59,0h-106.56v-106.56h106.56v106.56Zm111.59,0h-106.56v-106.56h106.56v106.56Zm111.59,0h-106.56v-106.56h106.56v106.56Zm111.59,0h-106.56v-106.56h106.56v106.56ZM-6.33,84.47h-106.56V-22.09H-6.33v106.56Zm111.59,0H-1.3V-22.09h106.56v106.56Zm111.59,0h-106.56V-22.09h106.56v106.56Zm111.59,0h-106.56V-22.09h106.56v106.56Zm111.59,0h-106.56V-22.09h106.56v106.56Zm111.59,0h-106.56V-22.09h106.56v106.56Zm111.59,0h-106.56V-22.09h106.56v106.56Zm111.59,0h-106.56V-22.09h106.56v106.56Zm111.59,0h-106.56V-22.09h106.56v106.56Zm111.59,0h-106.56V-22.09h106.56v106.56ZM-6.33-27.12h-106.56v-106.56H-6.33V-27.12Zm111.59,0H-1.3v-106.56h106.56V-27.12Zm111.59,0h-106.56v-106.56h106.56V-27.12Zm111.59,0h-106.56v-106.56h106.56V-27.12Zm111.59,0h-106.56v-106.56h106.56V-27.12Zm111.59,0h-106.56v-106.56h106.56V-27.12Zm111.59,0h-106.56v-106.56h106.56V-27.12Zm111.59,0h-106.56v-106.56h106.56V-27.12Zm111.59,0h-106.56v-106.56h106.56V-27.12Zm111.59,0h-106.56v-106.56h106.56V-27.12Z"/></g></g></g></g></svg>