<svg width="640" height="640" viewBox="0 0 640 640" fill="none" xmlns="http://www.w3.org/2000/svg">
<path d="M0 338.581V301.103C0.4406 299.731 0.77294 298.327 0.993988 296.903C3.16378 270.352 8.46319 244.151 16.782 218.843C18.237 214.368 20.252 213.193 24.66 213.236C45.899 213.442 67.142 213.356 88.383 213.293C91.0817 213.317 93.775 213.049 96.416 212.493C99.4043 211.885 102.066 210.204 103.9 207.767C105.733 205.33 106.611 202.306 106.367 199.266C106.026 191.516 100.339 186.679 90.825 186.553C78.125 186.383 65.419 186.507 52.716 186.505C45.316 186.505 37.916 186.505 29.416 186.505C33.266 179.018 36.884 172.729 39.771 166.122C41.911 161.222 44.883 159.782 50.225 159.802C108.118 160.024 166.011 159.963 223.905 159.918C233.565 159.911 239.675 154.751 239.833 146.833C239.99 138.969 233.849 133.633 224.333 133.395C222.668 133.353 221.001 133.383 219.333 133.383H60.164C67.023 124.963 72.804 118.155 78.236 111.083C80.912 107.597 83.955 106.435 88.323 106.455C123.723 106.623 159.123 106.555 194.529 106.535C197.026 106.628 199.526 106.507 202.002 106.173C207.939 105.137 211.631 101.624 212.702 95.5732C214.315 86.4662 208.08 80.0462 197.268 80.0152C170.405 79.9392 143.54 79.9962 116.676 79.9762C114.72 79.9762 112.765 79.7912 110.27 79.6642C196.985 1.43423 332.135 -26.5708 453.209 29.2992C578.009 86.8872 633.614 206.256 637.6 293.293H630.808C604.36 293.293 577.912 293.299 551.465 293.31C548.968 293.244 546.47 293.381 543.996 293.722C541.204 294.188 538.65 295.578 536.745 297.671C534.839 299.763 533.692 302.435 533.488 305.258C532.975 311.258 536.041 316.718 541.617 318.574C544.599 319.46 547.701 319.873 550.811 319.799C578.091 319.888 605.372 319.851 632.653 319.851H640C639.454 329.028 638.954 337.432 638.419 346.415H629.859C550.726 346.415 471.592 346.427 392.459 346.45C389.345 346.403 386.235 346.691 383.183 347.309C380.407 348.019 377.946 349.63 376.186 351.891C374.426 354.151 373.467 356.932 373.46 359.797C373.452 362.662 374.397 365.448 376.145 367.717C377.893 369.987 380.346 371.611 383.118 372.335C386.168 372.965 389.279 373.258 392.393 373.206C470.486 373.251 548.579 373.263 626.673 373.241H634.949C632.878 382.734 631.037 391.17 629.149 399.805H621.113C562.386 399.805 503.659 399.819 444.934 399.846C441.824 399.756 438.716 400.095 435.699 400.853C432.884 401.684 430.448 403.474 428.815 405.914C427.183 408.353 426.457 411.288 426.763 414.207C426.962 417.14 428.168 419.914 430.175 422.062C432.182 424.209 434.869 425.599 437.782 425.995C440.47 426.306 443.177 426.424 445.882 426.349C501.693 426.368 557.504 426.373 613.314 426.363H621.277C618.221 433.963 615.377 440.202 613.221 446.671C611.505 451.827 608.667 453.348 603.191 453.339C488.863 453.157 374.534 453.115 260.205 453.213C257.292 453.135 254.377 453.243 251.478 453.535C248.456 453.911 245.659 455.33 243.572 457.549C241.485 459.767 240.239 462.645 240.048 465.684C239.871 468.619 240.708 471.526 242.42 473.917C244.131 476.307 246.613 478.037 249.448 478.815C252.481 479.512 255.59 479.817 258.7 479.723C368.656 479.767 478.612 479.779 588.567 479.759H596.733C591.616 487.617 587.033 494.059 583.119 500.879C580.589 505.279 577.375 506.434 572.51 506.422C512.951 506.269 453.392 506.236 393.832 506.322C392.166 506.322 390.498 506.274 388.832 506.338C379.132 506.71 373.376 511.795 373.462 519.891C373.545 527.751 379.141 532.691 388.519 533.127C390.182 533.205 391.851 533.148 393.519 533.148H555.919C549.606 541.332 542.52 548.888 534.759 555.713C532.027 558.038 528.599 559.387 525.016 559.548C454.004 559.763 382.991 559.704 311.978 559.741C309.074 559.645 306.169 559.894 303.324 560.482C296.843 562.071 293.173 567.332 293.529 573.848C293.651 576.89 294.863 579.787 296.945 582.009C299.026 584.231 301.838 585.629 304.866 585.948C307.349 586.213 309.847 586.316 312.344 586.256C370.654 586.272 428.964 586.276 487.274 586.268H495.197C494.237 587.199 493.231 588.08 492.181 588.908C457.981 610.733 421.125 626.07 381.158 633.408C366.676 636.066 351.99 637.613 337.397 639.667H301.15C296.635 639.154 292.121 638.633 287.605 638.13C219.005 630.488 158.45 604.33 107.054 558.196C52.129 508.896 17.888 447.725 4.97299 374.914C2.83999 362.881 1.633 350.693 0 338.581Z" fill="#F72585"/>
</svg>
