<svg width="150" height="150" viewBox="0 0 150 150" fill="none" xmlns="http://www.w3.org/2000/svg">
<path d="M0.654175 79.2712V70.5773C0.756699 70.2585 0.833895 69.9322 0.885132 69.6013C1.38849 63.4424 2.61766 57.3646 4.54712 51.4942C4.58052 51.2883 4.65451 51.091 4.76477 50.9138C4.87503 50.7366 5.0194 50.5831 5.18945 50.4622C5.35951 50.3413 5.55183 50.2553 5.75537 50.2093C5.95891 50.1633 6.16959 50.1582 6.37512 50.1943C11.3021 50.2423 16.2291 50.2223 21.1571 50.2073C21.783 50.2131 22.4077 50.1507 23.0201 50.0213C23.7133 49.8803 24.3309 49.4903 24.7561 48.9251C25.1813 48.3598 25.3848 47.6583 25.3281 46.9533C25.2491 45.1533 23.9282 44.0333 21.7281 44.0043C18.7822 43.9643 15.8352 43.9933 12.8882 43.9933H7.48816C8.38116 42.2563 9.22018 40.7933 9.88818 39.2643C10.0587 38.776 10.3943 38.3626 10.8369 38.0951C11.2796 37.8277 11.8016 37.7231 12.3131 37.7993C25.7421 37.8503 39.1721 37.8363 52.6011 37.8253C54.8421 37.8253 56.2591 36.6253 56.3011 34.7903C56.3431 32.9553 54.9132 31.7293 52.7012 31.6733C52.3152 31.6633 51.9281 31.6733 51.5421 31.6733H14.6182C16.2102 29.7203 17.5512 28.1402 18.8112 26.4992C19.0754 26.1336 19.4298 25.8426 19.8398 25.6546C20.2499 25.4666 20.7016 25.3879 21.1511 25.4262C29.3631 25.4642 37.5751 25.4493 45.7871 25.4443C46.3664 25.466 46.9466 25.4379 47.5211 25.3602C48.1512 25.29 48.7392 25.0091 49.1897 24.563C49.6402 24.1169 49.9269 23.5317 50.0032 22.9023C50.3772 20.7893 48.9311 19.3023 46.4231 19.2933C40.1911 19.2753 33.9591 19.2882 27.7231 19.2843C27.2691 19.2843 26.8152 19.2413 26.2372 19.2113C36.9235 9.73714 50.1412 3.58572 64.271 1.5106C78.4008 -0.564525 92.829 1.52677 105.788 7.52827C134.737 20.8873 147.637 48.5773 148.562 68.7673H146.986C140.853 68.7673 134.718 68.7673 128.581 68.7673C128.002 68.7517 127.422 68.7835 126.848 68.8623C126.201 68.9705 125.608 69.2933 125.166 69.7788C124.724 70.2643 124.458 70.8844 124.411 71.5393C124.324 72.192 124.464 72.8547 124.807 73.4168C125.15 73.9788 125.676 74.4061 126.296 74.6273C126.988 74.8326 127.708 74.9288 128.429 74.9122C134.757 74.9322 141.086 74.9243 147.414 74.9243H149.114C148.988 77.0523 148.872 79.0023 148.748 81.0863H146.762C128.405 81.0863 110.048 81.0889 91.6912 81.0942C90.9687 81.0835 90.2473 81.1505 89.5392 81.2943C88.8989 81.4621 88.332 81.8369 87.927 82.3604C87.522 82.8838 87.3014 83.5266 87.2997 84.1885C87.298 84.8504 87.5153 85.4942 87.9176 86.0198C88.3199 86.5454 88.8848 86.9231 89.5242 87.0942C90.2319 87.24 90.9536 87.3071 91.6761 87.2943C109.791 87.3049 127.906 87.3079 146.022 87.3032H147.942C147.461 89.5032 147.034 91.4613 146.597 93.4653H144.733C131.11 93.4653 117.487 93.4683 103.865 93.4743C103.143 93.4536 102.422 93.5324 101.722 93.7083C101.069 93.9006 100.503 94.3163 100.124 94.8828C99.7458 95.4493 99.5779 96.1307 99.6501 96.8082C99.6964 97.4886 99.9759 98.1322 100.442 98.6305C100.907 99.1288 101.53 99.4512 102.206 99.5433C102.829 99.6152 103.457 99.6426 104.084 99.6253C117.031 99.6292 129.978 99.6292 142.924 99.6253H144.771C144.062 101.388 143.402 102.835 142.902 104.336C142.785 104.842 142.479 105.285 142.046 105.572C141.613 105.86 141.087 105.971 140.575 105.883C114.055 105.841 87.5345 105.831 61.0132 105.854C60.3373 105.836 59.6609 105.861 58.9882 105.928C58.2872 106.016 57.6388 106.345 57.1548 106.859C56.6708 107.374 56.3816 108.041 56.3372 108.746C56.2959 109.427 56.4899 110.101 56.8868 110.656C57.2838 111.211 57.8594 111.612 58.5171 111.792C59.2204 111.954 59.9417 112.025 60.6631 112.003C86.1698 112.013 111.676 112.016 137.183 112.011H139.077C137.89 113.834 136.828 115.329 135.919 116.911C135.689 117.351 135.329 117.709 134.89 117.939C134.45 118.168 133.95 118.258 133.458 118.196C119.642 118.161 105.826 118.154 92.0101 118.174C91.6231 118.174 91.2361 118.162 90.8501 118.174C88.5991 118.26 87.2652 119.44 87.2852 121.318C87.3042 123.141 88.6021 124.286 90.7781 124.388C91.1631 124.407 91.5511 124.393 91.9371 124.393H129.608C128.144 126.292 126.5 128.045 124.699 129.628C124.066 130.168 123.27 130.481 122.439 130.517C105.967 130.567 89.4941 130.554 73.0211 130.562C72.3474 130.54 71.6734 130.598 71.0132 130.734C70.32 130.882 69.7052 131.28 69.2863 131.851C68.8673 132.423 68.6732 133.129 68.7411 133.834C68.7696 134.54 69.051 135.212 69.5338 135.727C70.0167 136.242 70.6688 136.567 71.3711 136.641C71.9473 136.702 72.5268 136.726 73.1061 136.712C86.6321 136.716 100.158 136.716 113.684 136.712H115.522C115.3 136.929 115.066 137.133 114.822 137.324C106.993 142.411 98.2437 145.918 89.0681 147.647C85.7091 148.263 82.3021 148.622 78.9171 149.098H70.5111C69.4644 148.979 68.4171 148.86 67.3691 148.742C51.2932 147.064 36.2004 140.198 24.3722 129.183C12.5439 118.167 4.62313 103.6 1.80713 87.6843C1.31313 84.9073 1.03317 82.0802 0.654175 79.2712Z" fill="white"/>
</svg>
