<svg width="611" height="252" viewBox="0 0 611 252" fill="none" xmlns="http://www.w3.org/2000/svg">
<path d="M461.654 122.271V113.577C461.757 113.259 461.834 112.932 461.885 112.601C462.388 106.442 463.618 100.365 465.547 94.4942C465.581 94.2883 465.655 94.091 465.765 93.9138C465.875 93.7366 466.019 93.5831 466.189 93.4622C466.36 93.3413 466.552 93.2553 466.755 93.2093C466.959 93.1633 467.17 93.1582 467.375 93.1943C472.302 93.2423 477.229 93.2223 482.157 93.2073C482.783 93.2131 483.408 93.1507 484.02 93.0213C484.713 92.8803 485.331 92.4903 485.756 91.9251C486.181 91.3598 486.385 90.6583 486.328 89.9533C486.249 88.1533 484.928 87.0333 482.728 87.0043C479.782 86.9643 476.835 86.9933 473.888 86.9933H468.488C469.381 85.2563 470.22 83.7933 470.888 82.2643C471.059 81.776 471.394 81.3626 471.837 81.0951C472.28 80.8277 472.802 80.7231 473.313 80.7993C486.742 80.8503 500.172 80.8363 513.601 80.8253C515.842 80.8253 517.259 79.6253 517.301 77.7903C517.343 75.9553 515.913 74.7293 513.701 74.6733C513.315 74.6633 512.928 74.6733 512.542 74.6733H475.618C477.21 72.7203 478.551 71.1402 479.811 69.4992C480.075 69.1336 480.43 68.8426 480.84 68.6546C481.25 68.4666 481.702 68.3879 482.151 68.4262C490.363 68.4642 498.575 68.4493 506.787 68.4443C507.366 68.466 507.947 68.4379 508.521 68.3602C509.151 68.29 509.739 68.0091 510.19 67.563C510.64 67.1169 510.927 66.5317 511.003 65.9023C511.377 63.7893 509.931 62.3023 507.423 62.2933C501.191 62.2753 494.959 62.2882 488.723 62.2843C488.269 62.2843 487.815 62.2413 487.237 62.2113C497.924 52.7371 511.141 46.5857 525.271 44.5106C539.401 42.4355 553.829 44.5268 566.788 50.5283C595.737 63.8873 608.637 91.5773 609.562 111.767H607.986C601.853 111.767 595.718 111.767 589.581 111.767C589.002 111.752 588.422 111.783 587.848 111.862C587.201 111.97 586.608 112.293 586.166 112.779C585.724 113.264 585.458 113.884 585.411 114.539C585.324 115.192 585.464 115.855 585.807 116.417C586.15 116.979 586.676 117.406 587.296 117.627C587.988 117.833 588.708 117.929 589.429 117.912C595.757 117.932 602.086 117.924 608.414 117.924H610.114C609.988 120.052 609.872 122.002 609.748 124.086H607.762C589.405 124.086 571.048 124.089 552.691 124.094C551.969 124.083 551.247 124.151 550.539 124.294C549.899 124.462 549.332 124.837 548.927 125.36C548.522 125.884 548.301 126.527 548.3 127.188C548.298 127.85 548.515 128.494 548.918 129.02C549.32 129.545 549.885 129.923 550.524 130.094C551.232 130.24 551.954 130.307 552.676 130.294C570.791 130.305 588.906 130.308 607.022 130.303H608.942C608.461 132.503 608.034 134.461 607.597 136.465H605.733C592.11 136.465 578.487 136.468 564.865 136.474C564.143 136.454 563.422 136.532 562.722 136.708C562.069 136.901 561.503 137.316 561.124 137.883C560.746 138.449 560.578 139.131 560.65 139.808C560.696 140.489 560.976 141.132 561.442 141.631C561.907 142.129 562.53 142.451 563.206 142.543C563.829 142.615 564.457 142.643 565.084 142.625C578.031 142.629 590.978 142.629 603.924 142.625H605.771C605.062 144.388 604.402 145.835 603.902 147.336C603.785 147.842 603.479 148.285 603.046 148.572C602.613 148.86 602.087 148.971 601.575 148.883C575.055 148.841 548.535 148.831 522.013 148.854C521.337 148.836 520.661 148.861 519.988 148.928C519.287 149.016 518.639 149.345 518.155 149.859C517.671 150.374 517.382 151.041 517.337 151.746C517.296 152.427 517.49 153.101 517.887 153.656C518.284 154.211 518.859 154.612 519.517 154.792C520.22 154.954 520.942 155.025 521.663 155.003C547.17 155.013 572.676 155.016 598.183 155.011H600.077C598.89 156.834 597.828 158.329 596.919 159.911C596.689 160.351 596.329 160.709 595.89 160.939C595.45 161.168 594.95 161.258 594.458 161.196C580.642 161.161 566.826 161.154 553.01 161.174C552.623 161.174 552.236 161.162 551.85 161.174C549.599 161.26 548.265 162.44 548.285 164.318C548.304 166.141 549.602 167.286 551.778 167.388C552.163 167.407 552.551 167.393 552.937 167.393H590.608C589.144 169.292 587.5 171.045 585.699 172.628C585.066 173.168 584.27 173.481 583.439 173.517C566.967 173.567 550.494 173.554 534.021 173.562C533.347 173.54 532.673 173.598 532.013 173.734C531.32 173.882 530.705 174.28 530.286 174.851C529.867 175.423 529.673 176.129 529.741 176.834C529.77 177.54 530.051 178.212 530.534 178.727C531.017 179.242 531.669 179.567 532.371 179.641C532.947 179.702 533.527 179.726 534.106 179.712C547.632 179.716 561.158 179.716 574.684 179.712H576.522C576.3 179.929 576.066 180.133 575.822 180.324C567.993 185.411 559.244 188.918 550.068 190.647C546.709 191.263 543.302 191.622 539.917 192.098H531.511C530.464 191.979 529.417 191.86 528.369 191.742C512.293 190.064 497.2 183.198 485.372 172.183C473.544 161.167 465.623 146.6 462.807 130.684C462.313 127.907 462.033 125.08 461.654 122.271Z" fill="white"/>
<path d="M0.506104 251.966V50.4724H35.2482L35.5251 67.1474C44.1411 53.2474 56.9251 46.8584 73.6011 46.8584C108.063 46.8584 132.801 74.0954 132.801 120.23C132.801 161.641 111.958 190.823 76.6611 190.823C59.7081 190.823 46.3671 183.875 36.0841 169.423V251.966H0.506104ZM96.1132 117.729C96.1132 93.2724 83.3282 76.3184 65.2632 76.3184C48.0322 76.3184 34.6912 92.4384 34.6912 115.506C34.6912 145.243 44.9741 159.974 64.9851 159.974C86.1071 159.974 96.1132 145.8 96.1132 117.729Z" fill="white"/>
<path d="M145.862 187.21V0.445312H181.993V187.21H145.862Z" fill="white"/>
<path d="M286.213 187.21V168.033C276.764 183.597 262.59 190.823 243.692 190.823C216.455 190.823 197.278 170.534 197.278 140.523V50.4722H233.409V134.96C233.409 152.191 241.19 160.529 256.476 160.529C274.819 160.529 284.546 147.467 284.546 129.402V50.4722H320.398V187.21H286.213Z" fill="white"/>
<path d="M413.783 97.1633H447.412V136.072C447.412 164.972 430.736 190.823 392.105 190.823C352.083 190.823 336.242 165.254 336.242 135.794V13.5083H371.816V50.4723H447.416V76.0413H371.816V132.181C371.816 149.412 377.931 159.418 392.661 159.418C407.113 159.418 413.783 149.69 413.783 132.737V97.1633Z" fill="white"/>
</svg>
